<?xml version="1.0" encoding="UTF-8" standalone="no"?>
<!-- Created with Inkscape (http://www.inkscape.org/) -->

<svg
   width="512"
   height="512"
   viewBox="0 0 135.46667 135.46667"
   version="1.1"
   id="svg1"
   xml:space="preserve"
   sodipodi:docname="basilisk.svg"
   inkscape:version="1.4.2 (ebf0e940d0, 2025-05-08)"
   xmlns:inkscape="http://www.inkscape.org/namespaces/inkscape"
   xmlns:sodipodi="http://sodipodi.sourceforge.net/DTD/sodipodi-0.dtd"
   xmlns="http://www.w3.org/2000/svg"
   xmlns:svg="http://www.w3.org/2000/svg"><sodipodi:namedview
     id="namedview1"
     pagecolor="#505050"
     bordercolor="#eeeeee"
     borderopacity="1"
     inkscape:showpageshadow="0"
     inkscape:pageopacity="0"
     inkscape:pagecheckerboard="0"
     inkscape:deskcolor="#505050"
     inkscape:document-units="mm"
     showgrid="false"
     inkscape:zoom="1"
     inkscape:cx="295.5"
     inkscape:cy="206"
     inkscape:window-width="1920"
     inkscape:window-height="1008"
     inkscape:window-x="0"
     inkscape:window-y="0"
     inkscape:window-maximized="1"
     inkscape:current-layer="layer1"
     showguides="true"><sodipodi:guide
       position="-7.6729168,68.262502"
       orientation="0,-1"
       id="guide14"
       inkscape:locked="false" /><sodipodi:guide
       position="67.997918,102.92292"
       orientation="1,0"
       id="guide15"
       inkscape:locked="false" /><sodipodi:guide
       position="84.137502,123.03125"
       orientation="0,-1"
       id="guide16"
       inkscape:locked="false" /><sodipodi:guide
       position="52.387501,13.493751"
       orientation="0,-1"
       id="guide17"
       inkscape:locked="false" /></sodipodi:namedview><defs
     id="defs1"><inkscape:path-effect
       effect="bspline"
       id="path-effect14"
       is_visible="true"
       lpeversion="1.3"
       weight="33.333333"
       steps="2"
       helper_size="0"
       apply_no_weight="true"
       apply_with_weight="true"
       only_selected="false"
       uniform="false" /><inkscape:path-effect
       effect="bspline"
       id="path-effect13"
       is_visible="true"
       lpeversion="1.3"
       weight="33.333333"
       steps="2"
       helper_size="0"
       apply_no_weight="true"
       apply_with_weight="true"
       only_selected="false"
       uniform="false" /><inkscape:path-effect
       effect="bspline"
       id="path-effect12"
       is_visible="true"
       lpeversion="1.3"
       weight="33.333333"
       steps="2"
       helper_size="0"
       apply_no_weight="true"
       apply_with_weight="true"
       only_selected="false"
       uniform="false" /><inkscape:path-effect
       effect="bspline"
       id="path-effect11"
       is_visible="true"
       lpeversion="1.3"
       weight="33.333333"
       steps="2"
       helper_size="0"
       apply_no_weight="true"
       apply_with_weight="true"
       only_selected="false"
       uniform="false" /><inkscape:path-effect
       effect="bspline"
       id="path-effect10"
       is_visible="true"
       lpeversion="1.3"
       weight="33.333333"
       steps="2"
       helper_size="0"
       apply_no_weight="true"
       apply_with_weight="true"
       only_selected="false"
       uniform="false" /><inkscape:path-effect
       effect="bspline"
       id="path-effect8"
       is_visible="true"
       lpeversion="1.3"
       weight="33.333333"
       steps="2"
       helper_size="0"
       apply_no_weight="true"
       apply_with_weight="true"
       only_selected="false"
       uniform="false" /><inkscape:path-effect
       effect="bspline"
       id="path-effect7"
       is_visible="true"
       lpeversion="1.3"
       weight="33.333333"
       steps="2"
       helper_size="0"
       apply_no_weight="true"
       apply_with_weight="true"
       only_selected="false"
       uniform="false" /><inkscape:path-effect
       effect="bspline"
       id="path-effect6"
       is_visible="true"
       lpeversion="1.3"
       weight="33.333333"
       steps="2"
       helper_size="0"
       apply_no_weight="true"
       apply_with_weight="true"
       only_selected="false"
       uniform="false" /><inkscape:path-effect
       effect="bspline"
       id="path-effect5"
       is_visible="true"
       lpeversion="1.3"
       weight="33.333333"
       steps="2"
       helper_size="0"
       apply_no_weight="true"
       apply_with_weight="true"
       only_selected="false"
       uniform="false" /><inkscape:path-effect
       effect="bspline"
       id="path-effect4"
       is_visible="true"
       lpeversion="1.3"
       weight="33.333333"
       steps="2"
       helper_size="0"
       apply_no_weight="true"
       apply_with_weight="true"
       only_selected="false"
       uniform="false" /><inkscape:path-effect
       effect="bspline"
       id="path-effect3"
       is_visible="true"
       lpeversion="1.3"
       weight="33.333333"
       steps="2"
       helper_size="0"
       apply_no_weight="true"
       apply_with_weight="true"
       only_selected="false"
       uniform="false" /><inkscape:path-effect
       effect="bspline"
       id="path-effect2"
       is_visible="true"
       lpeversion="1.3"
       weight="33.333333"
       steps="2"
       helper_size="0"
       apply_no_weight="true"
       apply_with_weight="true"
       only_selected="false"
       uniform="false" /><inkscape:path-effect
       effect="bspline"
       id="path-effect1"
       is_visible="true"
       lpeversion="1.3"
       weight="33.333333"
       steps="2"
       helper_size="0"
       apply_no_weight="true"
       apply_with_weight="true"
       only_selected="false"
       uniform="false" /></defs><g
     inkscape:label="Camada 1"
     inkscape:groupmode="layer"
     id="layer1"
     transform="translate(-30.989382,-81.909894)"><path
       style="opacity:1;fill:#aadac6;fill-opacity:0.992157;stroke-width:0.264999;stroke-dasharray:none"
       d="m 130.75196,91.702231 c -0.49954,-0.609094 -1.49862,-1.827281 -2.38401,-2.910427 -0.8854,-1.083147 -1.65708,-2.031214 -2.12011,-2.86907 -0.46302,-0.837856 -0.61736,-1.565446 -0.59531,-2.083591 0.0221,-0.518146 0.22048,-0.826822 0.47405,-1.069358 0.25356,-0.242535 0.56223,-0.418917 1.2237,-0.57326 0.66147,-0.154343 1.67569,-0.286633 2.7671,-0.286631 1.09142,1e-6 2.25998,0.132291 3.49471,0.418928 1.23474,0.286636 2.53558,0.727598 4.44281,1.411114 1.90723,0.683516 4.42072,1.609539 6.09642,2.315101 1.67571,0.705562 2.51354,1.190622 3.61598,1.841064 1.10245,0.650442 2.46943,1.466221 3.79236,2.326126 1.32293,0.859904 2.60172,1.763879 3.97977,3.064765 1.37806,1.300887 2.85529,2.998598 4.01836,4.503427 1.16307,1.504829 2.01193,2.816701 2.73954,3.949461 0.72761,1.13275 1.33393,2.08633 1.47449,2.57416 0.14056,0.48784 -0.18465,0.5099 -1.90447,-0.0386 -1.71983,-0.54846 -4.83413,-1.6674 -7.29533,-2.62101 -2.46119,-0.95361 -4.26914,-1.741835 -6.12675,-2.62379 -1.85762,-0.881955 -3.76479,-1.857588 -5.27788,-2.594843 -1.5131,-0.737255 -2.63202,-1.236084 -3.59391,-1.649505 -0.9619,-0.413421 -1.76665,-0.741384 -2.53561,-1.001835 -0.76895,-0.260452 -1.50205,-0.453373 -2.18557,-0.63252 -0.68351,-0.179147 -1.31739,-0.344508 -1.90065,-0.480246 -0.58326,-0.135738 -1.11586,-0.241846 -1.39076,-0.296964 -0.2749,-0.05512 -0.29212,-0.05925 -0.30076,-0.06133 -0.009,-0.0021 -0.009,-0.0021 -0.50817,-0.61121 z"
       id="path3"
       sodipodi:nodetypes="ccccccccccccccccccccccccccc"
       inkscape:original-d="m 131.2515,92.311325 c -0.99908,-1.218187 -1.99816,-2.436371 -2.99723,-3.654558 -0.77172,-0.94811 -1.5434,-1.896181 -2.31511,-2.84427 -0.15434,-0.72762 -0.30868,-1.455209 -0.46302,-2.182813 0.19844,-0.308687 0.39688,-0.61736 0.59531,-0.926042 0.30869,-0.176392 0.61736,-0.352776 0.92605,-0.529166 1.01425,-0.132294 2.02847,-0.264584 3.0427,-0.396875 1.1686,0.132294 2.33716,0.264583 3.50573,0.396875 1.3009,0.440981 2.60174,0.881943 3.90261,1.322916 2.51359,0.926061 5.02708,1.852084 7.54062,2.778125 0.83787,0.48508 1.6757,0.97014 2.51354,1.455209 1.36705,0.815813 2.73403,1.631598 4.10105,2.447396 1.27884,0.904009 2.55763,1.807985 3.83645,2.711979 1.47729,1.697775 2.95452,3.395485 4.43177,5.093229 0.84889,1.311918 1.69775,2.62379 2.54662,3.93568 0.60635,0.95362 1.21267,1.9072 1.81901,2.8608 -0.32522,0.022 -0.65043,0.0441 -0.97565,0.0662 -3.11443,-1.11899 -6.22873,-2.23793 -9.3431,-3.3569 -1.80802,-0.78826 -3.61597,-1.576476 -5.42396,-2.364715 -1.90724,-0.975669 -3.81441,-1.951302 -5.72161,-2.926953 -1.11899,-0.498861 -2.23791,-0.997687 -3.3569,-1.496549 -0.8048,-0.327981 -1.60955,-0.655946 -2.41433,-0.983919 -0.73313,-0.192929 -1.46623,-0.38585 -2.19935,-0.578776 -0.63391,-0.165368 -1.26779,-0.33073 -1.90169,-0.496094 -0.53262,-0.106111 -1.06522,-0.212217 -1.59783,-0.318328 -0.0172,-0.0041 -0.0344,-0.0083 -0.0517,-0.01241 z"
       inkscape:path-effect="#path-effect3"
       transform="matrix(0.87762098,0,0,0.87762098,4.8507835,23.120259)" /><path
       style="opacity:1;fill:#d9ead3;fill-opacity:0.980392;stroke-width:0.264999;stroke-dasharray:none"
       d="m 132.05827,92.423008 c 1.06099,0.158601 3.18298,0.475806 5.4089,0.918802 2.22591,0.442996 4.55567,1.011763 6.80347,1.640708 2.24779,0.628946 4.41348,1.318028 6.27297,2.039948 1.85948,0.721919 3.41265,1.47663 5.32683,2.488414 1.91419,1.01178 4.18926,2.28058 5.69872,3.15016 1.50946,0.86958 2.25323,1.3399 3.3197,2.09464 1.06648,0.75473 2.45559,1.79383 3.86661,2.9314 1.41102,1.13757 2.84388,2.37354 4.14005,3.53299 1.29617,1.15945 2.45559,2.24229 3.62597,3.64785 1.17038,1.40556 2.35167,3.13373 3.21578,4.68148 0.86411,1.54775 1.411,2.91498 1.91416,4.26584 0.50316,1.35087 0.96255,2.68529 1.24694,4.20023 0.28439,1.51493 0.39377,3.2103 0.35001,4.68148 -0.0437,1.47118 -0.24063,2.71809 -0.57972,3.97051 -0.33908,1.25242 -0.82035,2.51027 -1.3235,3.53846 -0.50316,1.02819 -1.02818,1.82665 -1.58055,2.57045 -0.55238,0.74379 -1.13208,1.43287 -1.87042,2.14932 -0.73833,0.71646 -1.63523,1.46023 -2.73999,2.19308 -1.10475,0.73286 -2.41729,1.45476 -3.62049,1.97979 -1.2032,0.52503 -2.29698,0.85317 -3.35798,1.18131 -1.061,0.32814 -2.08916,0.65628 -3.33611,0.86957 -1.24696,0.2133 -2.71263,0.31174 -4.33148,0.39377 -1.61885,0.082 -3.39078,0.14766 -5.14089,0.082 -1.7501,-0.0656 -3.47828,-0.26251 -5.21198,-0.48127 -1.7337,-0.21876 -3.47282,-0.45939 -5.20652,-0.77113 -1.7337,-0.31174 -3.46187,-0.69457 -5.32136,-1.16491 -1.85949,-0.47034 -3.85018,-1.02817 -5.49637,-1.50398 -1.64619,-0.47581 -2.94779,-0.86957 -4.18928,-1.30163 -1.24148,-0.43206 -2.42276,-0.90238 -3.54393,-1.31257 -1.12116,-0.41018 -2.18213,-0.76019 -3.38533,-1.19772 -1.2032,-0.43753 -2.54855,-0.96254 -3.74628,-1.40554 -1.19773,-0.44299 -2.24776,-0.80394 -3.34705,-1.1649 -1.09928,-0.36095 -2.24776,-0.72191 -3.52206,-1.00083 -1.27429,-0.27892 -2.67433,-0.4758 -3.90487,-0.62347 -1.23055,-0.14767 -2.29152,-0.24611 -3.89396,-0.32814 -1.60245,-0.082 -3.74627,-0.14766 -5.627633,-0.1586 -1.881362,-0.0109 -3.500161,0.0328 -4.900243,0.1422 -1.400083,0.10938 -2.58137,0.28438 -3.899419,0.59065 -1.31805,0.30627 -2.772786,0.74379 -3.899413,1.11568 -1.126627,0.3719 -1.925089,0.67816 -2.964216,1.25242 -1.039128,0.57426 -2.318857,1.41647 -3.347042,2.34075 -1.028185,0.92427 -1.804772,1.93055 -2.526692,3.1775 -0.721919,1.24696 -1.389125,2.7345 -1.864934,4.10724 -0.475808,1.37274 -0.760191,2.63059 -0.913325,3.80645 -0.153133,1.17585 -0.175009,2.26963 -0.169541,3.30329 0.0055,1.03365 0.03828,2.00712 0.114849,3.25955 0.07657,1.25242 0.196882,2.78371 0.421117,4.30412 0.224235,1.52041 0.55237,3.02983 0.847701,4.23849 0.29533,1.20867 0.557838,2.11651 0.84223,3.04078 0.284391,0.92428 0.590649,1.86493 1.110214,3.0736 0.519564,1.20867 1.2524,2.68528 1.864938,4.00333 0.612537,1.31805 1.104737,2.47745 1.717278,3.82832 0.612541,1.35087 1.345374,2.8931 1.957909,4.15646 0.612535,1.26335 1.104739,2.24776 1.607894,3.15563 0.503155,0.90786 1.017236,1.73914 1.378196,2.39543 0.36096,0.65629 0.568777,1.13755 0.656281,1.59148 0.0875,0.45394 0.05469,0.88051 -0.06563,1.21413 -0.12032,0.33361 -0.328139,0.57424 -0.57425,0.68363 -0.246111,0.10938 -0.53049,0.0875 -1.066464,0.0219 -0.535973,-0.0656 -1.323497,-0.175 -2.373564,-0.48674 -1.050068,-0.31174 -2.362608,-0.82582 -3.740817,-1.52587 -1.37821,-0.70004 -2.822001,-1.586 -4.20021,-2.50481 -1.378208,-0.91881 -2.690753,-1.8704 -3.669715,-2.75639 -0.978963,-0.88599 -1.624298,-1.70633 -2.559398,-2.82342 -0.935101,-1.11709 -2.159888,-2.53084 -3.402507,-4.11285 -1.242619,-1.58201 -2.502933,-3.33211 -3.428458,-5.19166 -0.925526,-1.85954 -1.516159,-3.82832 -2.263957,-6.09797 -0.747798,-2.26965 -1.652679,-4.83992 -1.710237,-7.33237 -0.05756,-2.49246 0.732206,-4.90681 1.345875,-7.2735 0.613669,-2.3667 1.051173,-4.68547 1.526989,-6.59967 0.475817,-1.91421 0.989884,-3.4236 1.94966,-5.60974 0.959777,-2.18615 2.365149,-5.04879 3.767922,-7.25681 1.402773,-2.20801 2.802792,-3.76116 4.513239,-5.6396 1.710447,-1.87844 3.731109,-4.08194 5.694454,-5.24 1.963346,-1.15806 3.869126,-1.27054 5.766841,-1.44035 1.897716,-0.16981 3.78713,-0.39694 6.312477,-0.65818 2.525347,-0.26123 5.686316,-0.55655 8.792673,-0.55108 3.106357,0.005 6.157717,0.31172 8.572287,0.9802 2.41457,0.66847 4.19205,1.6991 6.83628,2.60154 2.64423,0.90245 6.15491,1.67661 8.66784,2.1172 2.51293,0.4406 4.02783,0.54756 5.70429,1.36793 1.67647,0.82037 3.5143,2.35405 5.41225,3.45455 1.89794,1.10049 3.85578,1.76769 5.84945,2.23668 1.99366,0.46898 4.02294,0.73971 6.03849,0.76024 2.01555,0.0205 4.01714,-0.20917 5.66335,-0.60842 1.64621,-0.39924 2.93685,-0.968 4.16616,-1.59296 1.22931,-0.62495 2.39715,-1.30603 3.4788,-2.37945 1.08164,-1.07343 2.07697,-2.53907 2.74967,-3.99386 0.6727,-1.45479 1.0227,-2.89855 1.20865,-4.20568 0.18595,-1.30713 0.20781,-2.47745 -0.27196,-3.49203 -0.47978,-1.01459 -1.46115,-1.87331 -1.86319,-2.99324 -0.40204,-1.11993 -0.2247,-2.50094 -0.91242,-3.64139 -0.68771,-1.14045 -2.24039,-2.0402 -3.64165,-3.19019 -1.40126,-1.14999 -2.65095,-2.55009 -3.43466,-3.85035 -0.78372,-1.30026 -1.10137,-2.50052 -2.11882,-3.6476 -1.01745,-1.14709 -2.73459,-2.24086 -4.22216,-3.24718 -1.48756,-1.00632 -2.74539,-1.925077 -3.84715,-2.704815 -1.10175,-0.779738 -2.04732,-1.420367 -3.17572,-1.964806 -1.12841,-0.54444 -2.43953,-0.992631 -3.71699,-1.752355 -1.27747,-0.759724 -2.52117,-1.830924 -3.14302,-2.366531 -0.62186,-0.535607 -0.62183,-0.535637 0.43916,-0.377035 z"
       id="path1"
       inkscape:path-effect="#path-effect1"
       inkscape:original-d="m 130.99728,92.264406 c 2.12198,0.317204 4.24397,0.634407 6.36595,0.951611 2.32985,0.568791 4.65961,1.137558 6.98942,1.706335 2.16578,0.689113 4.33147,1.378196 6.49721,2.067293 1.55323,0.754742 3.1064,1.509453 4.65961,2.26418 2.27516,1.268835 4.55023,2.537625 6.82534,3.806445 0.74381,0.47034 1.48758,0.94067 2.23137,1.41101 1.38916,1.03913 2.77827,2.07823 4.1674,3.11735 1.43291,1.23602 2.86577,2.47199 4.29866,3.708 1.15945,1.08289 2.31887,2.16573 3.4783,3.2486 1.18133,1.72825 2.36262,3.45642 3.54393,5.18464 0.54691,1.36728 1.0938,2.73451 1.64071,4.10177 0.4594,1.33447 0.9188,2.66889 1.37819,4.00333 0.10939,1.69543 0.21876,3.3908 0.32815,5.0862 -0.19689,1.24696 -0.39378,2.49387 -0.59066,3.74081 -0.48128,1.2579 -0.96255,2.51575 -1.44382,3.77363 -0.52504,0.7985 -1.05006,1.59696 -1.57508,2.39544 -0.57973,0.68911 -1.15944,1.37819 -1.73915,2.06729 -0.89695,0.7438 -1.79385,1.48758 -2.69077,2.23136 -1.31259,0.72193 -2.62513,1.44383 -3.9377,2.16574 -1.09383,0.32815 -2.18761,0.65628 -3.28142,0.98443 -1.02819,0.32814 -2.05635,0.65628 -3.08453,0.98442 -1.46573,0.0984 -2.9314,0.19688 -4.3971,0.29533 -1.772,0.0656 -3.54393,0.13125 -5.31589,0.19688 -1.72825,-0.19689 -3.45643,-0.39377 -5.18464,-0.59065 -1.73919,-0.24064 -3.47831,-0.48128 -5.21746,-0.72191 -1.72825,-0.38285 -3.45642,-0.76567 -5.18464,-1.1485 -1.99076,-0.55785 -3.98145,-1.11568 -5.97218,-1.67352 -1.30165,-0.39378 -2.60325,-0.78754 -3.90488,-1.18131 -1.18134,-0.47035 -2.36262,-0.94068 -3.54393,-1.41101 -1.06102,-0.35003 -2.12199,-0.70004 -3.18298,-1.05006 -1.34541,-0.52504 -2.69076,-1.05005 -4.03614,-1.57508 -1.05008,-0.36096 -2.10011,-0.72191 -3.15016,-1.08286 -1.14852,-0.36097 -2.297,-0.72192 -3.44549,-1.08287 -1.4001,-0.19689 -2.80014,-0.39377 -4.20021,-0.59066 -1.06102,-0.0984 -2.12199,-0.19688 -3.18298,-0.29533 -2.1439,-0.0656 -4.28772,-0.13125 -6.431577,-0.19688 -1.618867,0.0438 -3.237667,0.0875 -4.856499,0.13126 -1.181333,0.17501 -2.36262,0.35001 -3.543929,0.52502 -1.454791,0.43753 -2.909525,0.87505 -4.364287,1.31257 -0.798494,0.30627 -1.596956,0.61253 -2.395434,0.9188 -1.279779,0.84224 -2.559505,1.68446 -3.839257,2.52669 -0.776619,1.00632 -1.553205,2.0126 -2.329808,3.0189 -0.667234,1.48761 -1.334441,2.97515 -2.001665,4.46273 -0.284395,1.2579 -0.568777,2.51575 -0.853167,3.77363 -0.02188,1.09383 -0.04375,2.18761 -0.06563,3.28142 0.03282,0.9735 0.06563,1.94697 0.09844,2.92046 0.120322,1.53136 0.240639,3.06265 0.360955,4.59398 0.32815,1.50949 0.656286,3.01891 0.984428,4.52836 0.262517,0.90788 0.525025,1.81572 0.78754,2.72358 0.306271,0.94069 0.612529,1.88134 0.918795,2.82202 0.732866,1.47666 1.465701,2.95327 2.198549,4.42991 0.492223,1.15946 0.984428,2.31886 1.47664,3.4783 0.732864,1.5423 1.465699,3.08453 2.19855,4.6268 0.49222,0.98444 0.984424,1.96885 1.476637,2.95328 0.514098,0.8313 1.028176,1.66258 1.542267,2.49387 0.207827,0.48129 0.415644,0.96255 0.623469,1.44382 -0.03282,0.4266 -0.06563,0.85317 -0.09844,1.27976 -0.207828,0.24064 -0.415648,0.48127 -0.62347,0.72191 -0.284395,-0.0219 -0.56878,-0.0437 -0.853167,-0.0656 -0.787557,-0.10938 -1.575081,-0.21876 -2.362621,-0.32814 -1.312595,-0.5141 -2.625135,-1.02818 -3.937701,-1.54227 -1.443853,-0.886 -2.887647,-1.77196 -4.331473,-2.65795 -1.312592,-0.95162 -2.625132,-1.90322 -3.937701,-2.85483 -0.645356,-0.82037 -1.29069,-1.64071 -1.936035,-2.46106 -1.224857,-1.41383 -2.449641,-2.82758 -3.674497,-4.2414 -1.260387,-1.7502 -2.5207,-3.5003 -3.781085,-5.2505 -0.590666,-1.96889 -1.1813,-3.93767 -1.771965,-5.90656 -0.90493,-2.57041 -1.80981,-5.14068 -2.714741,-7.71109 0.789811,-2.4145 1.579575,-4.82885 2.369385,-7.24333 0.437531,-2.31891 0.875034,-4.63768 1.312567,-6.9566 0.514101,-1.50949 1.028168,-3.01888 1.542266,-4.52836 1.405453,-2.86281 2.810826,-5.72545 4.216277,-8.58825 1.400097,-1.55323 2.800112,-3.10638 4.200213,-4.65961 2.020793,-2.20365 4.041456,-4.40715 6.062248,-6.61079 1.905901,-0.11248 3.811681,-0.22496 5.717581,-0.33744 1.889531,-0.22714 3.778945,-0.45427 5.668475,-0.68141 3.161164,-0.29533 6.322133,-0.59065 9.483297,-0.88598 3.05155,0.30627 6.10291,0.61252 9.15446,0.91879 1.77759,1.03068 3.55507,2.06131 5.33265,3.09199 3.51088,0.77421 7.02156,1.54838 10.53243,2.32258 1.51499,0.10698 3.02989,0.21395 4.54488,0.32092 1.83794,1.53376 3.67577,3.06744 5.51371,4.6012 1.95795,0.66724 3.91579,1.33443 5.87374,2.00166 2.02938,0.27075 4.05866,0.54147 6.08805,0.81222 2.00171,-0.22971 4.0033,-0.45939 6.005,-0.68909 1.29072,-0.56879 2.58136,-1.13755 3.87207,-1.70634 1.16791,-0.68112 2.33575,-1.3622 3.50366,-2.04332 0.99538,-1.46573 1.99071,-2.93137 2.98609,-4.3971 0.35002,-1.44385 0.70003,-2.88761 1.05005,-4.33147 0.0219,-1.1704 0.0437,-2.34072 0.0656,-3.51112 -0.98142,-0.85877 -1.96279,-1.71749 -2.94421,-2.57626 0.17735,-1.38109 0.35468,-2.7621 0.53202,-4.14319 -1.55277,-0.89981 -3.10545,-1.79956 -4.65822,-2.69937 -1.24975,-1.40017 -2.49943,-2.80027 -3.74919,-4.20044 -0.31768,-1.20035 -0.63533,-2.40061 -0.953,-3.60095 -1.71723,-1.09383 -3.43437,-2.1876 -5.1516,-3.28142 -1.2579,-0.91882 -2.51573,-1.837578 -3.77363,-2.756391 -0.94561,-0.640662 -1.89118,-1.281291 -2.83679,-1.921954 -1.3112,-0.448216 -2.62232,-0.896407 -3.93351,-1.344621 -1.24374,-1.071234 -2.48744,-2.142434 -3.73115,-3.213648 z"
       transform="matrix(0.87762098,0,0,0.87762098,4.8507835,23.120259)"
       sodipodi:nodetypes="cccccccccccccccccccccccccccccccccccccccccccccccccccccccccccccccccccccccccccccccccccccccccccccccccccccc" /><path
       style="opacity:1;fill:#d6eedf;fill-opacity:1;stroke-width:0.264999;stroke-dasharray:none"
       d="m 91.200941,200.71525 c 0,0 0,0 0,0 0.07016,-0.88088 0.140317,-1.76175 0.604152,-2.69331 0.463834,-0.93156 1.321304,-1.91375 2.451646,-2.76735 1.130341,-0.85359 2.533477,-1.57855 4.088668,-2.08135 1.555192,-0.50281 3.262343,-0.78344 4.946163,-0.91595 1.68381,-0.13252 3.34419,-0.11692 4.74737,0.10136 1.40317,0.21828 2.54906,0.63922 3.40656,1.33302 0.8575,0.6938 1.42655,1.6604 1.78514,2.49451 0.35858,0.83411 0.50669,1.53568 0.37806,2.38539 -0.12863,0.8497 -0.53398,1.84749 -1.16931,2.79074 -0.63533,0.94324 -1.50059,1.83189 -2.49451,2.58805 -0.99392,0.75616 -2.11643,1.37977 -3.20389,1.81632 -1.08747,0.43654 -2.13982,0.68599 -3.41438,0.79901 -1.27456,0.11303 -2.77124,0.0896 -4.201699,-0.12865 -1.43046,-0.21828 -2.794622,-0.63143 -3.932752,-1.16152 -1.138131,-0.53009 -2.050169,-1.17709 -2.6777,-1.95664 -0.627531,-0.77954 -0.970521,-1.69158 -1.142019,-2.14761 -0.171499,-0.45603 -0.171499,-0.45602 -0.171499,-0.45602 z"
       id="path4"
       inkscape:path-effect="#path-effect4"
       inkscape:original-d="m 91.200941,200.71525 c 0,0 0,0 0,0 0,0 0.140316,-1.76175 0.210476,-2.64263 0.857506,-0.98224 1.714978,-1.96443 2.572469,-2.94664 1.403191,-0.72499 2.80633,-1.44994 4.209494,-2.17491 1.707219,-0.28064 3.41437,-0.56127 5.12155,-0.8419 1.66045,0.0156 3.32083,0.0312 4.98124,0.0468 1.14594,0.42096 2.29183,0.8419 3.43775,1.26285 0.56908,0.96665 1.13813,1.93325 1.70719,2.89987 0.14811,0.7016 0.29622,1.40317 0.44433,2.10475 -0.40537,0.99783 -0.81072,1.99562 -1.21607,2.99342 -0.86531,0.88869 -1.73057,1.77734 -2.59586,2.66602 -1.12255,0.62363 -2.24506,1.24725 -3.36759,1.87088 -1.0524,0.24946 -2.10475,0.4989 -3.15713,0.74836 -1.49674,-0.0234 -2.99342,-0.0468 -4.490124,-0.0702 -1.364216,-0.41316 -2.728378,-0.82631 -4.092564,-1.23947 -0.912077,-0.64702 -1.824115,-1.29402 -2.736173,-1.94104 -0.343003,-0.91207 -0.685991,-1.82411 -1.028988,-2.73617 z"
       transform="matrix(0.87762098,0,0,0.87762098,4.8507835,23.120259)" /><path
       style="opacity:0.904192;fill:#d9efe0;fill-opacity:1;stroke-width:0.264999;stroke-dasharray:none"
       d="m 118.98361,192.20271 c 0,0 0,0 0,0 0.41315,-1.27844 0.82631,-2.55687 1.44994,-3.58587 0.62364,-1.02899 1.45773,-1.80852 2.24117,-2.49062 0.78344,-0.68209 1.51619,-1.26674 2.38928,-1.66041 0.87309,-0.39366 1.88647,-0.59634 2.88039,-0.6587 0.99391,-0.0624 1.96831,0.0156 2.95054,0.3391 0.98223,0.32352 1.97222,0.89257 2.80243,1.60585 0.83021,0.71329 1.5006,1.57076 1.90596,2.57637 0.40536,1.00561 0.54567,2.1593 0.30401,3.21168 -0.24166,1.05239 -0.86528,2.00341 -1.63313,2.78685 -0.76785,0.78343 -1.67989,1.39926 -2.65043,1.89816 -0.97053,0.49891 -1.99949,0.88088 -3.08306,1.11084 -1.08357,0.22997 -2.22167,0.30792 -3.32473,0.22996 -1.10305,-0.078 -2.17099,-0.31181 -3.03239,-0.686 -0.86139,-0.37418 -1.51618,-0.88866 -2.03068,-1.47332 -0.5145,-0.58466 -0.88867,-1.23945 -1.06018,-1.78513 -0.1715,-0.54568 -0.14034,-0.98222 -0.12475,-1.20049 0.0156,-0.21827 0.0156,-0.21827 0.0156,-0.21827 z"
       id="path5"
       inkscape:path-effect="#path-effect5"
       inkscape:original-d="m 118.98361,192.20271 c 0,0 0,0 0,0 0,0 0.82631,-2.55687 1.23946,-3.83531 0.83412,-0.77955 1.66821,-1.55908 2.50231,-2.33861 0.73278,-0.58466 1.46553,-1.16931 2.19829,-1.75396 1.01342,-0.20268 2.0268,-0.40536 3.0402,-0.60804 0.97443,0.078 1.94883,0.15591 2.92326,0.23386 0.99003,0.56908 1.98002,1.13813 2.97003,1.70719 0.67041,0.85751 1.3408,1.71498 2.0112,2.57247 0.14032,1.15373 0.28063,2.30742 0.42095,3.46114 -0.62364,0.95105 -1.24726,1.90207 -1.87089,2.8531 -0.91207,0.61585 -1.82411,1.23167 -2.73617,1.8475 -1.02901,0.38198 -2.05797,0.76395 -3.08696,1.14592 -1.13815,0.078 -2.27625,0.15591 -3.41437,0.23386 -1.06799,-0.23387 -2.13593,-0.46772 -3.20389,-0.70158 -0.65483,-0.51451 -1.30962,-1.02899 -1.96443,-1.54348 -0.37419,-0.65483 -0.74836,-1.30962 -1.12254,-1.96444 0.0312,-0.43654 0.0624,-0.87308 0.0935,-1.30962 z"
       transform="matrix(0.87762098,0,0,0.87762098,4.8507835,23.120259)" /><path
       style="opacity:0.853293;fill:#d9efe0;fill-opacity:1;stroke-width:0.264999;stroke-dasharray:none"
       d="m 134.18066,174.20713 c 0.0585,-0.93935 0.22997,-2.0307 0.53399,-2.91548 0.30403,-0.88478 0.74056,-1.56296 1.1888,-1.9995 0.44823,-0.43655 0.90815,-0.63143 1.40317,-0.68209 0.49501,-0.0507 1.02508,0.0429 1.57855,0.3352 0.55348,0.29233 1.13032,0.78343 1.6877,1.59416 0.55737,0.81073 1.09524,1.94103 1.45383,2.97783 0.35859,1.03679 0.53788,1.98 0.60414,2.91936 0.0663,0.93935 0.0195,1.87477 -0.26895,2.58805 -0.28843,0.71328 -0.81851,1.20438 -1.58636,1.41096 -0.76785,0.20658 -1.77343,0.12862 -2.65821,-0.1715 -0.88479,-0.30013 -1.64872,-0.82241 -2.27625,-1.44995 -0.62753,-0.62753 -1.11863,-1.36028 -1.39147,-2.12034 -0.27284,-0.76005 -0.3274,-1.54736 -0.26894,-2.4867 z"
       id="path6"
       inkscape:path-effect="#path-effect6"
       inkscape:original-d="m 134.06763,174.35913 c 0.1715,-1.09135 0.343,-2.1827 0.5145,-3.27405 0.43655,-0.67821 0.87308,-1.35639 1.30962,-2.03459 0.45993,-0.19489 0.91985,-0.38977 1.37978,-0.58465 0.53009,0.0936 1.06017,0.18709 1.59025,0.28063 0.57687,0.49112 1.15371,0.98222 1.73057,1.47333 0.53789,1.13035 1.07576,2.26065 1.61364,3.39098 0.1793,0.94326 0.35859,1.88647 0.53788,2.82971 -0.0468,0.93547 -0.0935,1.87089 -0.14032,2.80633 -0.53009,0.49112 -1.06017,0.98222 -1.59025,1.47333 -1.00562,-0.078 -2.0112,-0.15591 -3.01681,-0.23386 -0.76396,-0.5223 -1.52789,-1.04458 -2.29183,-1.56687 -0.49112,-0.73278 -0.98222,-1.46553 -1.47333,-2.19829 -0.0546,-0.78735 -0.10913,-1.57466 -0.1637,-2.362 z"
       transform="matrix(0.87762098,0,0,0.87762098,4.8507835,23.120259)" /><path
       style="opacity:0.805389;fill:#d9ead3;fill-opacity:0.996078;stroke-width:0.264999;stroke-dasharray:none"
       d="m 128.5719,159.27121 c 0,-0.0507 0,-0.15201 0.1676,-0.47163 0.16761,-0.31961 0.5028,-0.85748 0.96273,-1.28623 0.45994,-0.42875 1.04458,-0.74835 1.66042,-0.79122 0.61584,-0.0429 1.26284,0.19098 1.79683,0.51449 0.53399,0.32351 0.95492,0.73666 1.20437,1.41097 0.24946,0.67431 0.32741,1.60973 0.24945,2.50621 -0.078,0.89648 -0.31181,1.75395 -0.60804,2.42435 -0.29622,0.67041 -0.6548,1.15371 -1.20049,1.39926 -0.54568,0.24556 -1.27842,0.25336 -1.90595,0.11304 -0.62754,-0.14031 -1.14982,-0.42873 -1.5201,-0.91985 -0.37028,-0.49111 -0.58855,-1.18489 -0.69769,-2.02679 -0.10913,-0.84191 -0.10913,-1.83191 -0.10913,-2.32692 0,-0.495 0,-0.49501 0,-0.54568 z"
       id="path7"
       inkscape:path-effect="#path-effect7"
       inkscape:original-d="m 128.5719,159.32188 c 0,-0.10134 0,-0.20268 0,-0.30402 0.33521,-0.53789 0.6704,-1.07576 1.0056,-1.61364 0.58467,-0.31961 1.16931,-0.63922 1.75396,-0.95883 0.64703,0.23387 1.29403,0.46772 1.94105,0.70158 0.42095,0.41317 0.84189,0.82631 1.26284,1.23947 0.078,0.93546 0.15591,1.87088 0.23386,2.80633 -0.23386,0.85751 -0.46772,1.71498 -0.70158,2.57247 -0.35859,0.48332 -0.71717,0.96662 -1.07576,1.44993 -0.73278,0.008 -1.46552,0.0156 -2.19829,0.0234 -0.5223,-0.28843 -1.04458,-0.57685 -1.56687,-0.86528 -0.21827,-0.6938 -0.43654,-1.38758 -0.65481,-2.08136 0,-0.99003 0,-1.98003 0,-2.97004 z"
       transform="matrix(0.87762098,0,0,0.87762098,4.8507835,23.120259)" /><path
       style="opacity:0.958084;fill:#98cedd;fill-opacity:0.992157;stroke-width:0.264999;stroke-dasharray:none"
       d="m 54.832393,129.25377 c 0,0 0,0 0,0 -1.681207,0.59531 -3.362413,1.19063 -5.09049,1.93202 -1.728077,0.74139 -3.502955,1.62883 -5.253081,2.41432 -1.750126,0.78549 -3.475396,1.46898 -5.289815,1.83737 -1.81442,0.36839 -3.717879,0.42166 -5.074995,0.30798 -1.357115,-0.11369 -2.167812,-0.39432 -2.619945,-0.9322 -0.452133,-0.53789 -0.545675,-1.333 -0.506697,-2.23727 0.03898,-0.90428 0.210472,-1.91765 0.771748,-3.39879 0.561276,-1.48114 1.512291,-3.42994 2.486721,-5.22289 0.97443,-1.79295 1.972215,-3.42994 3.492331,-5.70622 1.520116,-2.27627 3.562462,-5.19168 5.144932,-7.21848 1.582469,-2.02681 2.704979,-3.16491 4.505733,-4.98905 1.800753,-1.82414 4.279625,-4.33419 7.047009,-6.711799 2.767383,-2.377608 5.823104,-4.622629 8.94128,-6.548099 3.118176,-1.92547 6.298619,-3.531282 9.798775,-4.895482 3.500156,-1.364199 7.319808,-2.486709 11.451393,-3.289635 4.131585,-0.802927 8.574852,-1.28623 12.70643,-1.325203 4.131578,-0.03897 7.951228,0.366378 11.583898,0.98222 3.63268,0.615842 7.07816,1.442133 9.93129,2.346405 2.85312,0.904272 5.11373,1.886468 7.07973,2.85088 1.966,0.964412 5.31183,2.859411 5.31482,2.860989 0.003,0.0016 0.009,0.0046 -1.56002,0.01323 -1.56874,0.0086 -4.71198,0.02274 -8.94054,0.21722 -4.22857,0.194479 -9.54218,0.569298 -14.19999,1.197693 -4.65781,0.628394 -8.65955,1.510321 -12.959075,2.926964 -4.299526,1.416643 -8.896566,3.36791 -12.523591,5.37986 -3.627025,2.01196 -6.283831,4.08449 -9.525013,6.85162 -3.241182,2.76713 -7.066543,6.2287 -10.098248,9.40924 -3.031705,3.18054 -5.269597,6.07988 -6.239732,7.85755 -0.970135,1.77768 -0.672486,2.43361 -0.523657,2.76159 0.148829,0.32797 0.148799,0.32797 0.148799,0.32797 z"
       id="path8"
       inkscape:original-d="m 54.832393,129.25377 c 0,0 0,0 0,0 0,0 -3.362412,1.19063 -5.04362,1.78594 -1.774949,0.88747 -3.549827,1.77491 -5.324739,2.66237 -1.725338,0.68352 -3.450609,1.36701 -5.175912,2.05052 -1.903534,0.0533 -3.806994,0.10654 -5.710491,0.15981 -0.810734,-0.28064 -1.621433,-0.56126 -2.432151,-0.8419 -0.09355,-0.79514 -0.187089,-1.59025 -0.280633,-2.38538 0.171501,-1.01342 0.342996,-2.02679 0.514493,-3.04019 0.951053,-1.94888 1.902069,-3.89768 2.853103,-5.84652 0.997825,-1.63706 1.995612,-3.27405 2.993419,-4.91108 2.042424,-2.91552 4.08477,-5.83093 6.127152,-8.74639 1.122555,-1.13815 2.245066,-2.27625 3.367598,-3.41437 2.478974,-2.51016 4.95785,-5.02021 7.436773,-7.530318 3.055842,-2.245109 6.111563,-4.49013 9.167344,-6.735194 3.180572,-1.605875 6.361015,-3.211687 9.541523,-4.817533 3.819803,-1.122553 7.639455,-2.245064 11.459181,-3.367595 4.443444,-0.483323 8.886711,-0.966624 13.330068,-1.449938 3.819799,0.405368 7.639449,0.810717 11.459179,1.216078 3.44562,0.826322 6.8911,1.652616 10.33665,2.478923 2.2607,0.982237 4.52131,1.964431 6.78196,2.946646 1.67139,0.946534 6.68852,3.788114 5.01718,2.841609 0.006,0.0031 0.0117,0.0062 0.0176,0.0093 -3.14337,0.01413 -6.28661,0.02825 -9.42992,0.04237 -5.31382,0.374833 -10.62743,0.749652 -15.94114,1.124479 -4.00191,0.881962 -8.00365,1.76389 -12.005473,2.645834 -4.597228,1.951341 -9.194271,3.902599 -13.791406,5.853909 -2.656912,2.07261 -5.313715,4.14514 -7.970573,6.2177 -3.82551,3.4617 -7.650869,6.92327 -11.476302,10.3849 -2.237978,2.89945 -4.475869,5.79879 -6.713802,8.69818 0.297662,0.65596 0.595313,1.31189 0.892969,1.96784 z"
       inkscape:path-effect="#path-effect8"
       transform="matrix(0.87762098,0,0,0.87762098,4.8507835,23.120259)" /><path
       style="opacity:1;fill:#82b4dd;fill-opacity:1;stroke-width:0.264999;stroke-dasharray:none"
       d="m 55.759334,128.88392 c -1.54738,1.09427 -3.363701,1.52107 -5.18002,1.94786 -0.721071,0.31376 -1.442142,0.62753 -2.161271,0.95201 -0.719129,0.32449 -1.436288,0.65969 -2.153462,0.99489 0.378076,-1.28624 0.75615,-2.57247 1.68966,-4.68504 0.93351,-2.11258 2.422394,-5.05137 4.172472,-7.89281 1.750078,-2.84143 3.761241,-5.58534 6.396108,-8.2202 2.634866,-2.63486 5.893263,-5.1605 9.4246,-7.49134 3.531336,-2.33083 7.335393,-4.46672 10.929088,-6.197304 3.593695,-1.730584 6.976813,-3.055768 11.225336,-4.209492 4.248523,-1.153723 9.362178,-2.135919 13.220905,-2.697186 3.85873,-0.561267 6.46233,-0.701581 8.62166,-0.740557 2.15934,-0.03898 3.87428,0.02338 5.5503,0.148112 1.67602,0.124727 3.31301,0.311813 4.95004,0.498903 -2.07357,0.187089 -4.14713,0.374177 -7.31988,0.810724 -3.17276,0.436547 -7.44454,1.122526 -11.085,1.847501 -3.64046,0.724976 -6.649413,1.488907 -10.399025,3.141549 -3.749612,1.652642 -8.239652,4.19388 -13.314488,7.46018 -5.074836,3.26629 -10.734158,7.25744 -14.242084,10.66404 -3.507926,3.4066 -4.86429,6.22846 -6.18172,8.52032 -1.317429,2.29185 -2.595839,4.05356 -4.143219,5.14784 z"
       id="path13"
       inkscape:original-d="m 56.028272,129.5514 c -1.816319,0.42679 -5.448958,1.28038 -5.448958,1.28038 0,0 -1.442141,0.62753 -2.163212,0.94129 -0.717188,0.33521 -2.151521,1.00561 -2.151521,1.00561 0,0 0.75615,-2.57247 1.134227,-3.85871 1.488942,-2.93891 2.977827,-5.8777 4.46674,-8.81655 2.011244,-2.74402 4.022408,-5.48793 6.033612,-8.2319 3.258526,-2.52575 6.51692,-5.0514 9.775383,-7.57709 3.804211,-2.13598 7.608271,-4.27186 11.412407,-6.40779 3.383254,-1.325237 6.766372,-2.650423 10.14956,-3.975634 5.113858,-0.982234 10.227513,-1.964431 15.34127,-2.946646 2.6037,-0.140319 5.2073,-0.280633 7.81095,-0.420949 1.71502,0.06236 3.42996,0.124724 5.14494,0.187086 1.63706,0.187095 4.91108,0.561269 4.91108,0.561269 0,0 -4.14713,0.374176 -6.2207,0.561266 -4.27194,0.686004 -8.54372,1.371984 -12.81557,2.057974 -3.00907,0.763961 -6.018023,1.527892 -9.027031,2.291837 -4.490217,2.541338 -8.980257,5.082577 -13.470384,7.623867 -5.659546,3.9913 -11.318865,7.98245 -16.978297,11.97367 -1.356421,2.82198 -2.712786,5.64384 -4.069178,8.46576 -1.278466,1.76179 -2.55688,3.5235 -3.835318,5.28526 z"
       inkscape:path-effect="#path-effect14"
       transform="matrix(0.87762098,0,0,0.87762098,4.8507835,23.120259)" /><path
       style="opacity:1;fill:#c9e7e1;fill-opacity:1;stroke-width:0.264999;stroke-dasharray:none"
       d="m 71.486472,190.77617 c -0.95883,-0.70159 -2.87649,-2.10476 -4.778576,-3.85094 -1.902086,-1.74618 -3.788523,-3.83529 -5.799749,-6.29865 -2.011227,-2.46337 -4.147111,-5.30082 -5.986832,-8.44238 -1.839721,-3.14157 -3.383171,-6.58705 -4.568075,-10.03263 -1.184903,-3.44559 -2.011194,-6.89107 -2.424348,-10.41461 -0.413154,-3.52354 -0.413154,-7.12492 -0.07015,-10.50814 0.343002,-3.38322 1.028981,-6.54808 2.315233,-9.51034 1.286252,-2.96226 3.172696,-5.72177 5.503537,-8.76199 2.330841,-3.04023 5.10593,-6.36098 7.966857,-9.19072 2.860927,-2.82974 5.807514,-5.1683 8.676237,-7.28086 2.868723,-2.11257 5.659406,-3.99901 9.214134,-5.93227 3.554727,-1.933274 7.873269,-3.913256 12.223125,-5.347612 4.349855,-1.434356 8.730756,-2.323008 13.259916,-2.962232 4.52915,-0.639224 9.20627,-1.028984 13.56392,-0.982207 4.35764,0.04678 8.39556,0.530079 11.26427,1.099147 2.86871,0.569068 4.56807,1.223868 6.85213,2.408778 2.28407,1.184911 5.15271,2.899857 7.93568,4.872106 2.78297,1.97225 5.48011,4.20168 7.49913,6.0414 2.01901,1.83972 3.35978,3.28962 4.66162,5.02801 1.30184,1.73839 2.56466,3.76514 3.5157,5.6984 0.95104,1.93327 1.59025,3.77294 1.90986,5.87772 0.31961,2.10477 0.31961,4.47451 -0.0624,6.22848 -0.38198,1.75396 -1.14591,2.89206 -2.03459,4.03799 -0.88869,1.14593 -1.90206,2.29962 -3.25067,3.3598 -1.34862,1.06018 -3.03239,2.02679 -4.63596,2.81415 -1.60358,0.78735 -3.12688,1.39542 -5.95288,1.59197 -2.82601,0.19655 -6.95453,-0.0184 -10.8489,-0.85628 -3.89437,-0.83786 -7.55437,-2.29855 -11.3826,-3.91363 -3.82823,-1.61507 -7.82446,-3.38444 -10.83412,-4.72941 -3.00965,-1.34498 -5.03257,-2.26549 -7.60953,-2.99586 -2.57697,-0.73036 -5.70781,-1.27054 -9.141916,-1.40283 -3.434106,-0.13229 -7.171271,0.14331 -10.580569,0.791 -3.409299,0.64769 -6.490528,1.66741 -9.328529,3.22462 -2.838,1.5572 -5.432554,3.65174 -7.48509,5.70781 -2.052535,2.05608 -3.562801,4.07344 -4.869209,6.41891 -1.306408,2.34547 -2.408791,5.01875 -3.224607,7.73906 -0.815816,2.7203 -1.344961,5.48729 -1.615844,7.90442 -0.270884,2.41713 -0.283474,4.48414 -0.08582,6.55673 0.197659,2.07259 0.60555,4.15063 1.038258,5.99446 0.432708,1.84383 0.890208,3.45335 1.400088,5.03811 0.50988,1.58476 1.072108,3.14467 1.65089,4.57233 0.578783,1.42766 1.174085,2.72299 1.733572,3.87228 0.559488,1.14929 1.083134,2.15249 1.631598,3.07027 0.548465,0.91778 1.121718,1.7501 1.74486,2.4304 0.623142,0.6803 1.296138,1.20855 1.632644,1.47269 0.336507,0.26413 0.336503,0.26413 -0.622328,-0.43745 z"
       id="path12"
       inkscape:path-effect="#path-effect13"
       inkscape:original-d="m 72.445303,191.47775 c -1.91766,-1.40317 -3.835318,-2.80634 -5.752978,-4.2095 -1.886514,-2.0892 -3.772953,-4.17831 -5.659432,-6.26747 -2.135971,-2.83757 -4.271857,-5.67502 -6.407785,-8.51253 -1.543513,-3.44562 -3.086963,-6.8911 -4.630447,-10.33665 -0.826323,-3.44562 -1.652616,-6.8911 -2.478923,-10.33665 0,-3.60153 0,-7.20291 0,-10.80437 0.686006,-3.16498 1.371983,-6.32984 2.057974,-9.49475 1.886516,-2.75961 3.772955,-5.51912 5.659432,-8.27867 2.775204,-3.3209 5.550299,-6.64165 8.325448,-9.96248 2.946704,-2.33865 5.893292,-4.67721 8.839938,-7.01582 2.790796,-1.88652 5.581478,-3.77296 8.372218,-5.65943 4.318717,-1.980066 8.637259,-3.960049 12.955889,-5.940069 4.381082,-0.88869 8.761983,-1.777343 13.142983,-2.666013 4.67731,-0.389776 9.35443,-0.779536 14.03165,-1.169304 4.03807,0.483322 8.07599,0.966623 12.11399,1.449937 1.69942,0.654823 3.39878,1.309619 5.09816,1.964431 2.86875,1.715013 5.73739,3.429958 8.60608,5.144937 2.69725,2.229521 5.39439,4.458951 8.09159,6.688421 1.34083,1.44997 2.6816,2.89987 4.0224,4.34981 1.26288,2.02684 2.5257,4.05359 3.78855,6.08038 0.63923,1.83974 1.27844,3.67941 1.91766,5.51912 0,2.36984 0,4.73958 0,7.10937 -0.76396,1.13814 -1.52789,2.27624 -2.29184,3.41437 -1.01342,1.15373 -2.02679,2.30742 -3.04019,3.46114 -1.68383,0.96664 -3.3676,1.93325 -5.05139,2.89987 -1.52336,0.60809 -3.04666,1.21616 -4.56998,1.82424 -4.12869,-0.21498 -8.25721,-0.42994 -12.38581,-0.64492 -3.66014,-1.46075 -7.32014,-2.92144 -10.98021,-4.38216 -3.99639,-1.76943 -7.99262,-3.5388 -11.98893,-5.3082 -2.023,-0.92055 -4.04592,-1.84106 -6.06888,-2.76159 -3.13097,-0.5402 -6.26181,-1.08038 -9.392708,-1.62057 -3.737314,0.27561 -7.474479,0.55121 -11.211719,0.82682 -3.081356,1.01977 -6.162587,2.03949 -9.24388,3.05924 -2.594708,2.09466 -5.189259,4.1892 -7.78397,6.28386 -1.510362,2.01749 -3.020629,4.03485 -4.53099,6.05234 -1.102454,2.67345 -2.204838,5.34673 -3.307291,8.02018 -0.529178,2.76716 -1.058323,5.53415 -1.5875,8.30131 -0.01259,2.0671 -0.02518,4.13411 -0.03777,6.20117 0.407908,2.07812 0.815797,4.15616 1.223697,6.23424 0.457518,1.60958 0.915017,3.2191 1.372526,4.82865 0.562251,1.55997 1.12448,3.11988 1.686719,4.67982 0.595323,1.29538 1.190625,2.59071 1.785938,3.88606 0.523666,1.00323 1.047308,2.00643 1.570963,3.00964 0.573276,0.83235 1.146527,1.66467 1.719792,2.497 0.673023,0.52827 1.34602,1.05652 2.01903,1.58479 z"
       inkscape:label="path12"
       sodipodi:nodetypes="cccccccccccccccccccccccccccccccccccccccccccccc"
       transform="matrix(0.87762098,0,0,0.87762098,4.8507835,23.120259)" /><path
       style="opacity:1;fill:#e8ebc7;fill-opacity:1;stroke-width:0.264999;stroke-dasharray:none"
       d="m 133.30677,109.53828 c 0.27844,-0.0773 0.83531,-0.23203 1.44633,-0.36352 0.61102,-0.13149 1.27617,-0.23977 2.06508,-0.21656 0.78892,0.0232 1.70155,0.17789 2.84626,0.43313 1.1447,0.25524 2.52139,0.61101 3.80531,1.09054 1.28391,0.47954 2.47499,1.08281 3.60422,1.70157 1.12922,0.61875 2.19655,1.25296 3.24844,2.01867 1.05188,0.76572 2.08826,1.66288 2.87718,2.56782 0.78891,0.90493 1.33031,1.81757 1.68609,2.46726 0.35578,0.64969 0.52593,1.0364 0.70383,1.43086 0.17789,0.39446 0.36351,0.79663 0.51046,1.30711 0.14695,0.51047 0.25524,1.12921 0.29391,1.70156 0.0387,0.57235 0.008,1.09828 -0.15468,1.77118 -0.16242,0.67289 -0.45632,1.49272 -1.07508,2.34351 -0.61876,0.85079 -1.56233,1.73249 -2.4982,2.38218 -0.93587,0.6497 -1.86398,1.06734 -2.9468,1.34578 -1.08283,0.27844 -2.3203,0.41766 -3.62743,0.495 -1.30712,0.0773 -2.68381,0.0928 -3.94452,0 -1.26072,-0.0928 -2.40538,-0.29391 -3.6429,-0.7193 -1.23751,-0.4254 -2.5678,-1.07507 -3.78984,-1.96454 -1.22204,-0.88946 -2.33577,-2.01866 -3.18656,-3.10921 -0.85078,-1.09056 -1.43859,-2.14242 -1.92586,-3.27165 -0.48726,-1.12923 -0.87397,-2.33577 -1.05187,-3.56554 -0.17789,-1.22978 -0.14695,-2.48273 -0.0155,-3.45727 0.13148,-0.97453 0.36351,-1.67061 0.66515,-2.31257 0.30165,-0.64196 0.67289,-1.22976 1.12149,-1.74024 0.4486,-0.51047 0.97453,-0.94358 1.43859,-1.3071 0.46407,-0.36352 0.86625,-0.65742 1.06734,-0.80438 0.2011,-0.14695 0.20109,-0.14695 0.47953,-0.22429 z"
       id="path2"
       inkscape:path-effect="#path-effect2"
       inkscape:original-d="m 133.02833,109.61562 c 0.55688,-0.15469 1.11375,-0.30937 1.67062,-0.46406 0.66517,-0.10828 1.33032,-0.21656 1.99547,-0.32485 0.91268,0.1547 1.82531,0.30938 2.73797,0.46407 1.37675,0.35579 2.75344,0.71156 4.13016,1.06734 1.19111,0.60329 2.38219,1.20656 3.57328,1.80984 1.06736,0.63424 2.13469,1.26844 3.20203,1.90266 1.03643,0.89721 2.07281,1.79438 3.10922,2.69156 0.54142,0.91268 1.08281,1.82532 1.62422,2.73797 0.17016,0.38673 0.34031,0.77344 0.51047,1.16016 0.18563,0.4022 0.37125,0.80437 0.55687,1.20656 0.10828,0.61876 0.21656,1.2375 0.32485,1.85625 -0.0309,0.52595 -0.0619,1.05188 -0.0928,1.57781 -0.29391,0.81986 -0.58781,1.63969 -0.88172,2.45953 -0.94361,0.88174 -1.88718,1.76344 -2.83078,2.64516 -0.92814,0.41767 -1.85625,0.83531 -2.78437,1.25297 -1.23753,0.13922 -2.475,0.27844 -3.7125,0.41766 -1.37675,0.0155 -2.75344,0.0309 -4.13016,0.0464 -1.14471,-0.20109 -2.28937,-0.40219 -3.43406,-0.60328 -1.33034,-0.6497 -2.66063,-1.29937 -3.99094,-1.94906 -1.11377,-1.12924 -2.2275,-2.25844 -3.34125,-3.38766 -0.58782,-1.05189 -1.17562,-2.10375 -1.76344,-3.15562 -0.38672,-1.20659 -0.77343,-2.41313 -1.16015,-3.61969 0.0309,-1.25299 0.0619,-2.50594 0.0928,-3.75891 0.23204,-0.6961 0.46406,-1.39218 0.69609,-2.08828 0.37126,-0.58782 0.7425,-1.17562 1.11375,-1.76344 0.52595,-0.43313 1.05188,-0.86624 1.57782,-1.29937 0.40219,-0.29391 0.80437,-0.58781 1.20656,-0.88172 z"
       transform="matrix(0.87762098,0,0,0.87762098,4.8507835,23.120259)" /></g><g
     inkscape:groupmode="layer"
     id="layer2"
     inkscape:label="Camada 2"
     transform="translate(-38.664801,-27.053647)" /></svg>
